<svg id="Layer_1" data-name="Layer 1" xmlns="http://www.w3.org/2000/svg" viewBox="0 0 183.83 175.89"><defs><style>.cls-1{fill:none;}.cls-2{fill:#a01515;}</style></defs><path class="cls-1" d="M103.83,20.76c-48.69,0-88.17,37.65-88.17,84.09s39.48,84.08,88.17,84.08S192,151.29,192,104.85,152.53,20.76,103.83,20.76ZM118,59.52a12,12,0,1,1,8.37,14.76A12,12,0,0,1,118,59.52ZM106.57,99.68a12,12,0,1,1-12,12A12,12,0,0,1,106.57,99.68ZM74.05,57.44A12,12,0,1,1,65.68,72.2,12,12,0,0,1,74.05,57.44ZM53.66,98.35A122.62,122.62,0,0,0,36,103.57c-4.44,1.56-10.22,3.76-16.9,6.75,3.63-5,6.72-9.9,9.33-14.42,3.94-6.79,7-12,9.74-19.57,3.07-8.41,5.4-16.27,5.4-16.27,1.14-3.82,1.51-5.42,2.85-7.82A26.09,26.09,0,0,1,66,39.11a19.46,19.46,0,0,0-7.65,6.24,20.92,20.92,0,0,0-3.13,6.94c-1.42,5.39-.54,9-.3,13.64a51.24,51.24,0,0,1-1.74,15.92,27.65,27.65,0,0,1,8.7.16c4.16.74,5,1.92,10.42,3.36,4.31,1.15,7.1,1.89,10.75,1.33a22.46,22.46,0,0,0,8.59-3.48,29.23,29.23,0,0,0,6.06-5,30.26,30.26,0,0,1-5.87,9,29.5,29.5,0,0,1-8.63,6.38c-4.54,2.14-6.72,1.55-18.58,3.07C60,97.28,57.25,97.63,53.66,98.35Zm72.28,32.49c-1.1,4.41-2.78,5.61-8.53,14.83-2.25,3.6-3.57,5.71-5.12,8.65a109.9,109.9,0,0,0-6.51,15.45c-1.46,4-3.23,9.35-5,15.76-1.47-5.45-3.13-10.4-4.81-14.83-2.53-6.67-4.48-11.81-8.22-18.08-4.17-7-8.37-13.13-8.37-13.13-2-3-3-4.17-3.88-6.49a23.53,23.53,0,0,1,2-21.32,17.68,17.68,0,0,0,0,9,19.2,19.2,0,0,0,3.11,6.18c3,4.09,6,5.55,9.46,8a47.07,47.07,0,0,1,10.24,10.35,25.13,25.13,0,0,1,5.12-6c2.92-2.5,4.26-2.45,8.37-5.41,3.3-2.37,5.43-3.9,7.14-6.8a20.29,20.29,0,0,0,2.48-8,26.43,26.43,0,0,0,0-7.11,27.65,27.65,0,0,1,3,9.27A26.65,26.65,0,0,1,125.94,130.84Zm27.2-28.29c-3.59-.73-6.3-1.07-10.94-1.67-11.86-1.52-14-.93-18.58-3.07A29.7,29.7,0,0,1,115,91.43a30.26,30.26,0,0,1-5.87-9,29.28,29.28,0,0,0,6.06,5,22.48,22.48,0,0,0,8.58,3.48c3.66.56,6.45-.19,10.76-1.34,5.38-1.43,6.26-2.61,10.42-3.36a27.89,27.89,0,0,1,8.7-.15,51.26,51.26,0,0,1-1.74-15.92c.24-4.63,1.12-8.25-.3-13.64a20.92,20.92,0,0,0-3.13-6.94,19.53,19.53,0,0,0-7.65-6.24,26.09,26.09,0,0,1,19.61,13.13c1.34,2.4,1.71,4,2.85,7.82,0,0,2.33,7.85,5.4,16.26,2.76,7.55,5.8,12.79,9.73,19.58,2.62,4.51,5.71,9.37,9.33,14.42-6.67-3-12.45-5.19-16.89-6.75A122.62,122.62,0,0,0,153.14,102.55Z" transform="translate(-11.58 -17.15)"/><path class="cls-2" d="M103.49,17.15c-50.76,0-91.91,39.37-91.91,87.94S52.73,193,103.49,193s91.92-39.38,91.92-87.95S154.26,17.15,103.49,17.15Zm.34,171.78c-48.69,0-88.17-37.64-88.17-84.08s39.48-84.09,88.17-84.09S192,58.41,192,104.85,152.53,188.93,103.83,188.93Z" transform="translate(-11.58 -17.15)"/><path class="cls-1" d="M103.83,20.76c-48.69,0-88.17,37.65-88.17,84.09s39.48,84.08,88.17,84.08S192,151.29,192,104.85,152.53,20.76,103.83,20.76ZM118,59.52a12,12,0,1,1,8.37,14.76A12,12,0,0,1,118,59.52ZM106.57,99.68a12,12,0,1,1-12,12A12,12,0,0,1,106.57,99.68ZM74.05,57.44A12,12,0,1,1,65.68,72.2,12,12,0,0,1,74.05,57.44ZM53.66,98.35A122.62,122.62,0,0,0,36,103.57c-4.44,1.56-10.22,3.76-16.9,6.75,3.63-5,6.72-9.9,9.33-14.42,3.94-6.79,7-12,9.74-19.57,3.07-8.41,5.4-16.27,5.4-16.27,1.14-3.82,1.51-5.42,2.85-7.82A26.09,26.09,0,0,1,66,39.11a19.46,19.46,0,0,0-7.65,6.24,20.92,20.92,0,0,0-3.13,6.94c-1.42,5.39-.54,9-.3,13.64a51.24,51.24,0,0,1-1.74,15.92,27.65,27.65,0,0,1,8.7.16c4.16.74,5,1.92,10.42,3.36,4.31,1.15,7.1,1.89,10.75,1.33a22.46,22.46,0,0,0,8.59-3.48,29.23,29.23,0,0,0,6.06-5,30.26,30.26,0,0,1-5.87,9,29.5,29.5,0,0,1-8.63,6.38c-4.54,2.14-6.72,1.55-18.58,3.07C60,97.28,57.25,97.63,53.66,98.35Zm72.28,32.49c-1.1,4.41-2.78,5.61-8.53,14.83-2.25,3.6-3.57,5.71-5.12,8.65a109.9,109.9,0,0,0-6.51,15.45c-1.46,4-3.23,9.35-5,15.76-1.47-5.45-3.13-10.4-4.81-14.83-2.53-6.67-4.48-11.81-8.22-18.08-4.17-7-8.37-13.13-8.37-13.13-2-3-3-4.17-3.88-6.49a23.53,23.53,0,0,1,2-21.32,17.68,17.68,0,0,0,0,9,19.2,19.2,0,0,0,3.11,6.18c3,4.09,6,5.55,9.46,8a47.07,47.07,0,0,1,10.24,10.35,25.13,25.13,0,0,1,5.12-6c2.92-2.5,4.26-2.45,8.37-5.41,3.3-2.37,5.43-3.9,7.14-6.8a20.29,20.29,0,0,0,2.48-8,26.43,26.43,0,0,0,0-7.11,27.65,27.65,0,0,1,3,9.27A26.65,26.65,0,0,1,125.94,130.84Zm27.2-28.29c-3.59-.73-6.3-1.07-10.94-1.67-11.86-1.52-14-.93-18.58-3.07A29.7,29.7,0,0,1,115,91.43a30.26,30.26,0,0,1-5.87-9,29.28,29.28,0,0,0,6.06,5,22.48,22.48,0,0,0,8.58,3.48c3.66.56,6.45-.19,10.76-1.34,5.38-1.43,6.26-2.61,10.42-3.36a27.89,27.89,0,0,1,8.7-.15,51.26,51.26,0,0,1-1.74-15.92c.24-4.63,1.12-8.25-.3-13.64a20.92,20.92,0,0,0-3.13-6.94,19.53,19.53,0,0,0-7.65-6.24,26.09,26.09,0,0,1,19.61,13.13c1.34,2.4,1.71,4,2.85,7.82,0,0,2.33,7.85,5.4,16.26,2.76,7.55,5.8,12.79,9.73,19.58,2.62,4.51,5.71,9.37,9.33,14.42-6.67-3-12.45-5.19-16.89-6.75A122.62,122.62,0,0,0,153.14,102.55Z" transform="translate(-11.58 -17.15)"/><path class="cls-2" d="M187.74,114.52c-6.67-3-12.45-5.19-16.89-6.75a122.62,122.62,0,0,0-17.71-5.22c-3.59-.73-6.3-1.07-10.94-1.67-11.86-1.52-14-.93-18.58-3.07A29.7,29.7,0,0,1,115,91.43a30.26,30.26,0,0,1-5.87-9,29.28,29.28,0,0,0,6.06,5,22.48,22.48,0,0,0,8.58,3.48c3.66.56,6.45-.19,10.76-1.34,5.38-1.43,6.26-2.61,10.42-3.36a27.89,27.89,0,0,1,8.7-.15,51.26,51.26,0,0,1-1.74-15.92c.24-4.63,1.12-8.25-.3-13.64a20.92,20.92,0,0,0-3.13-6.94,19.53,19.53,0,0,0-7.65-6.24,26.09,26.09,0,0,1,19.61,13.13c1.34,2.4,1.71,4,2.85,7.82,0,0,2.33,7.85,5.4,16.26,2.76,7.55,5.8,12.79,9.73,19.58C181,104.61,184.12,109.47,187.74,114.52Z" transform="translate(-11.58 -17.15)"/><path class="cls-2" d="M97.68,78.27a30.26,30.26,0,0,1-5.87,9,29.5,29.5,0,0,1-8.63,6.38c-4.54,2.14-6.72,1.55-18.58,3.07-4.64.6-7.35.95-10.94,1.67A122.62,122.62,0,0,0,36,103.57c-4.44,1.56-10.22,3.76-16.9,6.75,3.63-5,6.72-9.9,9.33-14.42,3.94-6.79,7-12,9.74-19.57,3.07-8.41,5.4-16.27,5.4-16.27,1.14-3.82,1.51-5.42,2.85-7.82A26.09,26.09,0,0,1,66,39.11a19.46,19.46,0,0,0-7.65,6.24,20.92,20.92,0,0,0-3.13,6.94c-1.42,5.39-.54,9-.3,13.64a51.24,51.24,0,0,1-1.74,15.92,27.65,27.65,0,0,1,8.7.16c4.16.74,5,1.92,10.42,3.36,4.31,1.15,7.1,1.89,10.75,1.33a22.46,22.46,0,0,0,8.59-3.48A29.23,29.23,0,0,0,97.68,78.27Z" transform="translate(-11.58 -17.15)"/><path class="cls-2" d="M125.94,130.84c-1.1,4.41-2.78,5.61-8.53,14.83-2.25,3.6-3.57,5.71-5.12,8.65a109.9,109.9,0,0,0-6.51,15.45c-1.46,4-3.23,9.35-5,15.76-1.47-5.45-3.13-10.4-4.81-14.83-2.53-6.67-4.48-11.81-8.22-18.08-4.17-7-8.37-13.13-8.37-13.13-2-3-3-4.17-3.88-6.49a23.53,23.53,0,0,1,2-21.32,17.68,17.68,0,0,0,0,9,19.2,19.2,0,0,0,3.11,6.18c3,4.09,6,5.55,9.46,8a47.07,47.07,0,0,1,10.24,10.35,25.13,25.13,0,0,1,5.12-6c2.92-2.5,4.26-2.45,8.37-5.41,3.3-2.37,5.43-3.9,7.14-6.8a20.29,20.29,0,0,0,2.48-8,26.43,26.43,0,0,0,0-7.11,27.65,27.65,0,0,1,3,9.27A26.65,26.65,0,0,1,125.94,130.84Z" transform="translate(-11.58 -17.15)"/><circle class="cls-2" cx="94.99" cy="94.53" r="12"/><path class="cls-2" d="M80.44,80.57a12,12,0,1,1,8.37-14.76A12,12,0,0,1,80.44,80.57Z" transform="translate(-11.58 -17.15)"/><path class="cls-2" d="M140.43,68.55c-4,5-10,8-16,5a12.09,12.09,0,0,1-7-13c1-6,8-11,14-10,8,1,12,10,9,18Z" transform="translate(-11.58 -17.15)"/></svg>